<svg width="36" height="38" viewBox="0 0 36 38" fill="none" xmlns="http://www.w3.org/2000/svg">
<path fill-rule="evenodd" clip-rule="evenodd" d="M18 0C18.8284 0 19.5 0.671573 19.5 1.5V36.5C19.5 37.3284 18.8284 38 18 38C17.1716 38 16.5 37.3284 16.5 36.5V1.5C16.5 0.671573 17.1716 0 18 0ZM34.5 12C35.3284 12 36 12.6716 36 13.5V36.5C36 37.3284 35.3284 38 34.5 38C33.6716 38 33 37.3284 33 36.5V13.5C33 12.6716 33.6716 12 34.5 12ZM3 13.5C3 12.6716 2.32843 12 1.5 12C0.671573 12 0 12.6716 0 13.5V36.5C0 37.3284 0.671573 38 1.5 38C2.32843 38 3 37.3284 3 36.5V13.5Z" fill="white"/>
</svg>
