<svg width="36" height="30" viewBox="0 0 36 30" fill="none" xmlns="http://www.w3.org/2000/svg">
<path fill-rule="evenodd" clip-rule="evenodd" d="M12.5 12C14.9853 12 17 9.98528 17 7.5C17 5.01472 14.9853 3 12.5 3C10.0147 3 8 5.01472 8 7.5C8 9.98528 10.0147 12 12.5 12ZM12.5 15C16.6421 15 20 11.6421 20 7.5C20 3.35786 16.6421 0 12.5 0C8.35786 0 5 3.35786 5 7.5C5 11.6421 8.35786 15 12.5 15ZM35.6022 9.48258C36.1641 10.0913 36.1262 11.0403 35.5174 11.6022L29.0174 17.6022C28.4584 18.1183 27.6015 18.134 27.0238 17.6389L23.5238 14.6389C22.8948 14.0998 22.822 13.1528 23.3611 12.5238C23.9002 11.8948 24.8472 11.822 25.4762 12.3611L27.9631 14.4927L33.4826 9.39779C34.0913 8.83589 35.0403 8.87385 35.6022 9.48258ZM5 21H21C22.1046 21 23 21.8954 23 23V25C23 26.1046 22.1046 27 21 27H5C3.89543 27 3 26.1046 3 25V23C3 21.8954 3.89543 21 5 21ZM0 23C0 20.2386 2.23858 18 5 18H21C23.7614 18 26 20.2386 26 23V25C26 27.7614 23.7614 30 21 30H5C2.23858 30 0 27.7614 0 25V23Z" fill="white"/>
</svg>
