<svg width="36" height="38" viewBox="0 0 36 38" fill="none" xmlns="http://www.w3.org/2000/svg">
<path fill-rule="evenodd" clip-rule="evenodd" d="M19.1464 0.28191C18.6308 -0.088652 17.9377 -0.094382 17.416 0.267604L0.644898 11.9043C0.240948 12.1845 0 12.645 0 13.1367V36.41C0 37.2384 0.671573 37.91 1.5 37.91H34.4639C35.2923 37.91 35.9639 37.2384 35.9639 36.41V13.1367C35.9639 12.6538 35.7314 12.2004 35.3392 11.9186L19.1464 0.28191ZM3 34.91V13.9216L18.2559 3.33624L32.9639 13.9059V34.91H24.9759V19.4839C24.9759 18.6555 24.3043 17.9839 23.4759 17.9839H13.0663C12.2379 17.9839 11.5663 18.6555 11.5663 19.4839V34.91H3ZM14.5663 34.91H21.9759V20.9839H14.5663V34.91Z" fill="white"/>
</svg>
